<svg viewBox="0 0 560 320" fill="none" xmlns="http://www.w3.org/2000/svg">
  <rect width="560" height="320" rx="8" fill="#1e1e1e" />
  <!-- Header -->
  <circle cx="28" cy="28" r="14" fill="#2a2a2a" stroke="#444" stroke-width="1" />
  <path d="M22 26 L27 26 L29 20 L31 32 L33 24 L35 28" fill="none" stroke="#EA4B71" stroke-width="1.5" stroke-linecap="round" stroke-linejoin="round" />
  <text x="50" y="24" fill="#fff" font-size="13" font-family="system-ui" font-weight="700">WorkflowLogs account</text>
  <text x="50" y="38" fill="#888" font-size="10" font-family="system-ui">WorkflowLogs API</text>
  <!-- Tabs -->
  <line x1="0" y1="56" x2="560" y2="56" stroke="#333" stroke-width="1" />
  <text x="20" y="76" fill="#fff" font-size="11" font-family="system-ui" font-weight="600">Connection</text>
  <line x1="20" y1="82" x2="86" y2="82" stroke="#EA4B71" stroke-width="2" />
  <!-- Help banner -->
  <rect x="120" y="64" width="420" height="28" rx="6" fill="#2a2a2a" stroke="#444" stroke-width="1" />
  <text x="136" y="82" fill="#999" font-size="10" font-family="system-ui">Need help filling out these fields? <tspan fill="#EA4B71">Read our docs</tspan></text>
  <!-- API Key field -->
  <text x="120" y="120" fill="#ccc" font-size="12" font-family="system-ui" font-weight="500">API Key <tspan fill="#ef4444">*</tspan></text>
  <rect x="120" y="128" width="420" height="36" rx="6" fill="#111" stroke="#444" stroke-width="1" />
  <text x="136" y="150" fill="#888" font-size="13" font-family="system-ui">&#x2022;&#x2022;&#x2022;&#x2022;&#x2022;&#x2022;&#x2022;&#x2022;&#x2022;&#x2022;&#x2022;&#x2022;&#x2022;&#x2022;&#x2022;&#x2022;&#x2022;&#x2022;&#x2022;&#x2022;&#x2022;&#x2022;&#x2022;&#x2022;&#x2022;&#x2022;&#x2022;&#x2022;&#x2022;&#x2022;</text>
  <!-- Base URL field -->
  <text x="120" y="190" fill="#ccc" font-size="12" font-family="system-ui" font-weight="500">Base URL</text>
  <rect x="120" y="198" width="420" height="36" rx="6" fill="#111" stroke="#444" stroke-width="1" />
  <text x="136" y="221" fill="#fff" font-size="12" font-family="monospace">https://api.workflowlogs.com</text>
  <!-- Info -->
  <circle cx="128" cy="256" r="7" fill="none" stroke="#888" stroke-width="1" />
  <text x="127" y="260" text-anchor="middle" fill="#888" font-size="10" font-family="system-ui" font-weight="700">i</text>
  <text x="140" y="260" fill="#888" font-size="10" font-family="system-ui">Enterprise plan users can pull in credentials from external vaults.</text>
  <!-- Save button -->
  <rect x="120" y="278" width="60" height="28" rx="6" fill="#ef4444" />
  <text x="150" y="296" text-anchor="middle" fill="#fff" font-size="12" font-family="system-ui" font-weight="700">Save</text>
</svg>
